<svg width="79" height="80" viewBox="0 0 79 80" fill="none" xmlns="http://www.w3.org/2000/svg">
<g clip-path="url(#clip0_25:5)">
<path fill-rule="evenodd" clip-rule="evenodd" d="M25.6152 25.4597C23.7164 25.4597 22.4075 25.654 21.7476 25.8481V38.4501C22.5534 38.6277 23.5271 38.6887 24.8793 38.6887C29.8827 38.6887 32.9929 36.0939 32.9929 31.714C32.9715 27.7941 30.3264 25.4597 25.6152 25.4597Z" fill="#FD5B7E"/>
<path fill-rule="evenodd" clip-rule="evenodd" d="M0 0V80H78.0488V0H0ZM38.4616 41.6164C35.2703 44.71 30.4994 46.0962 24.9387 46.0962C23.7165 46.0962 22.5966 46.0519 21.7314 45.9242V61.1935H12.4113V19.0673C15.3055 18.5684 19.3837 18.18 25.1283 18.18C30.9432 18.18 35.081 19.3055 37.8506 21.6009C40.5334 23.7466 42.3076 27.3006 42.3076 31.4811C42.3076 35.6561 40.9555 39.21 38.4616 41.6164ZM52.5363 61.82C48.5824 61.82 45.0558 60.9326 42.7731 59.6575L44.4444 52.7659C46.1754 53.8305 49.7455 55.1056 52.5363 55.1056C55.3652 55.1056 56.5499 54.0911 56.5499 52.5053C56.5499 50.925 55.6195 50.1711 52.1146 48.9568C45.8563 46.8114 43.449 43.3238 43.514 39.6424C43.514 33.8818 48.3335 29.5072 55.809 29.5072C59.3413 29.5072 62.4893 30.3277 64.3446 31.2814L62.6783 37.9344C61.3045 37.175 58.7244 36.1547 56.1282 36.1547C53.8456 36.1547 52.5581 37.1084 52.5581 38.6887C52.5581 40.1412 53.7212 40.9007 57.4156 42.2426C63.1655 44.2551 65.5725 47.2436 65.6377 51.7957C65.6375 57.5784 61.1748 61.82 52.5363 61.82Z" fill="#FD5B7E"/>
</g>
<defs>
<clipPath id="clip0_25:5">
<rect width="78.0488" height="80" fill="white"/>
</clipPath>
</defs>
</svg>
