<svg width="80" height="80" viewBox="0 0 80 80" fill="none" xmlns="http://www.w3.org/2000/svg">
<path d="M0 0V80H80V0H0ZM75.3125 75.3125H4.6875V4.6875H75.3125V75.3125Z" fill="#FD5B7E"/>
<path d="M29.3033 34.2625L25.4783 44.725H32.9783L29.3033 34.2625Z" fill="#FD5B7E"/>
<path d="M52.703 38.6499C50.0583 38.6499 47.8708 40.6444 47.6405 43.5249H57.8405C57.5388 40.3905 55.2732 38.6499 52.703 38.6499Z" fill="#FD5B7E"/>
<path d="M9.375 9.375V70.625H70.625V9.375H9.375ZM36.3906 55L33.9156 48.3625H24.6156L22.1781 55H16.8531L27.0156 28.375H31.5906L41.7156 55H36.3906ZM62.9033 46.7875H47.7158C47.7908 47.5627 48.6198 51.7 52.9283 51.7C55.7161 51.7 57.2531 49.838 57.5783 49.0375L61.8908 50.2375C61.1653 51.7375 58.7109 55.375 52.7408 55.375C46.4648 55.375 42.3908 50.7227 42.3908 45.2875C42.3908 40.4102 45.7812 35.0125 52.7783 35.0125C57.7734 35.0125 63.0158 38.3203 63.0158 45.1C63.0158 45.4252 62.9531 46.5877 62.9033 46.7875Z" fill="#FD5B7E"/>
</svg>
