<svg width="79" height="80" viewBox="0 0 79 80" fill="none" xmlns="http://www.w3.org/2000/svg">
<path d="M69.5216 28.6159H67.639V19.3467C67.639 19.2889 67.63 19.2306 67.6225 19.1721C67.6195 18.804 67.5048 18.4425 67.2578 18.1561L52.1419 0.536528C52.1374 0.532025 52.133 0.530428 52.1298 0.525489C52.0397 0.422802 51.9347 0.3374 51.8237 0.263471C51.7908 0.240958 51.7576 0.222077 51.7232 0.202614C51.6269 0.149019 51.5249 0.104575 51.4198 0.0724763C51.3914 0.0643427 51.3658 0.0528685 51.3373 0.0448801C51.2231 0.0172839 51.1046 0 50.9844 0H13.8352C12.1388 0 10.7607 1.40784 10.7607 3.13739V28.6152H8.87825C6.45196 28.6152 4.48413 30.6219 4.48413 33.099V56.417C4.48413 58.8917 6.45181 60.9007 8.87825 60.9007H10.7608V76.8626C10.7608 78.592 12.1389 80 13.8353 80H64.5646C66.2595 80 67.6391 78.5922 67.6391 76.8626V60.9007H69.5217C71.9477 60.9007 73.9158 58.8924 73.9158 56.417V33.0997C73.9157 30.6227 71.9476 28.6159 69.5216 28.6159ZM13.8352 3.13798H49.4472V19.1892C49.4472 20.0559 50.1362 20.7578 50.9844 20.7578H64.5645V28.6167H13.8352V3.13798ZM37.519 46.214C33.705 44.8583 31.2179 42.7045 31.2179 39.2997C31.2179 35.3016 34.4869 32.2428 39.904 32.2428C42.4914 32.2428 44.3986 32.7988 45.7618 33.4254L44.6043 37.7009C43.6832 37.2474 42.05 36.5869 39.7999 36.5869C37.5527 36.5869 36.4628 37.6301 36.4628 38.8467C36.4628 40.3417 37.7579 41.002 40.7206 42.1494C44.7739 43.6782 46.6804 45.832 46.6804 49.1347C46.6804 53.0625 43.7185 56.3989 37.4168 56.3989C34.7942 56.3989 32.2061 55.7019 30.9116 54.9727L31.9678 50.5947C33.364 51.3239 35.5099 52.0529 37.7242 52.0529C40.1082 52.0529 41.3676 51.0465 41.3676 49.5177C41.3676 48.056 40.2778 47.2234 37.519 46.214ZM10.4724 44.6859C10.4724 36.6911 16.0596 32.2426 23.0073 32.2426C25.6975 32.2426 27.741 32.7986 28.6613 33.2855L27.6051 37.4904C26.5483 37.04 25.085 36.6238 23.2456 36.6238C19.1239 36.6238 15.9226 39.1601 15.9226 44.3719C15.9226 49.0641 18.6476 52.0189 23.28 52.0189C24.8465 52.0189 26.5834 51.6727 27.6058 51.2531L28.3884 55.3897C27.4344 55.8769 25.2891 56.3977 22.4962 56.3977C14.5607 56.3979 10.4724 51.3572 10.4724 44.6859ZM64.5646 76.0134H13.8352V60.9007H64.5645V76.0134H64.5646ZM55.811 56.3979C53.1891 56.3979 50.601 55.7 49.3063 54.9717L50.3631 50.5935C51.7578 51.3235 53.9045 52.0519 56.1173 52.0519C58.5027 52.0519 59.7623 51.0454 59.7623 49.5174C59.7623 48.0576 58.6731 47.2234 55.9146 46.214C52.0999 44.8583 49.6126 42.7045 49.6126 39.2997C49.6126 35.3016 52.8831 32.2428 58.2986 32.2428C60.8875 32.2428 62.7948 32.7988 64.1578 33.4254L62.9988 37.7009C62.0801 37.2474 60.4454 36.5869 58.1964 36.5869C55.9483 36.5869 54.8593 37.6301 54.8593 38.8467C54.8593 40.3417 56.1533 41.002 59.1168 42.1494C63.1701 43.6782 65.0773 45.832 65.0773 49.1347C65.0765 53.0613 62.113 56.3979 55.811 56.3979Z" fill="#FD5B7E"/>
</svg>
