<svg width="54" height="80" viewBox="0 0 54 80" fill="none" xmlns="http://www.w3.org/2000/svg">
<g clip-path="url(#clip0_25:52)">
<path d="M13.3062 79.9999C20.6483 79.9999 26.6071 74.0266 26.6071 66.6666V53.3333H13.3062C5.96406 53.3333 0.00524902 59.3066 0.00524902 66.6666C0.00524902 74.0266 5.96406 79.9999 13.3062 79.9999Z" fill="#FD5B7E"/>
<path d="M0.00524902 40.0001C0.00524902 32.6401 5.96406 26.6667 13.3062 26.6667H26.6071V53.3334H13.3062C5.96406 53.3334 0.00524902 47.3601 0.00524902 40.0001Z" fill="#FD5B7E"/>
<path d="M0.00537109 13.3333C0.00537109 5.97333 5.96418 0 13.3063 0H26.6072V26.6667H13.3063C5.96418 26.6667 0.00537109 20.6933 0.00537109 13.3333Z" fill="#FD5B7E"/>
<path d="M26.6072 0H39.9081C47.2502 0 53.209 5.97333 53.209 13.3333C53.209 20.6933 47.2502 26.6667 39.9081 26.6667H26.6072V0Z" fill="#FD5B7E"/>
<path d="M53.209 40.0001C53.209 47.3601 47.2502 53.3334 39.9081 53.3334C32.566 53.3334 26.6072 47.3601 26.6072 40.0001C26.6072 32.6401 32.566 26.6667 39.9081 26.6667C47.2502 26.6667 53.209 32.6401 53.209 40.0001Z" fill="#FD5B7E"/>
</g>
<defs>
<clipPath id="clip0_25:52">
<rect width="53.2143" height="80" fill="white"/>
</clipPath>
</defs>
</svg>
