<svg width="67" height="80" viewBox="0 0 67 80" fill="none" xmlns="http://www.w3.org/2000/svg">
<path d="M58.5632 16.8097L56.9988 14.9324L46.0747 1.82207C46.0736 1.82069 46.0736 1.82069 46.0736 1.82069L45.1873 0.757241C44.7793 0.268966 44.2379 0 43.6621 0H10.3034C8.93908 0 7.47241 1.26345 7.47241 4.03586V53.7931V76.6028V77.2414C7.47241 78.3959 8.43908 79.52 9.58276 79.8745C9.64138 79.8938 9.6977 79.92 9.75747 79.9338C9.93678 79.9766 10.1195 80 10.3034 80H56.3655C56.5494 80 56.7322 79.9766 56.9115 79.9338C56.9713 79.92 57.0276 79.8938 57.0862 79.8745C58.2299 79.52 59.1965 78.3959 59.1965 77.2414V76.6028V53.7931V19.28C59.1965 18.2221 59.0896 17.44 58.5632 16.8097ZM45.4034 4.91724L55.0988 16.5517H45.4034V4.91724ZM10.3034 77.2414C10.2218 77.2414 10.1483 77.2069 10.0759 77.1738C9.8977 77.0717 9.77126 76.8566 9.77126 76.6028V56.5517H56.8977V76.6028C56.8977 76.8566 56.7713 77.0717 56.5931 77.1738C56.5207 77.2069 56.4471 77.2414 56.3655 77.2414H10.3034ZM9.77126 53.7931V4.03586C9.77126 3.73655 9.80919 2.75862 10.3034 2.75862H43.1713C43.1333 2.93241 43.1046 3.11172 43.1046 3.29793V19.3103H56.4471C56.6023 19.3103 56.7517 19.2759 56.8965 19.2303C56.8965 19.251 56.8977 19.2593 56.8977 19.28V53.7931H9.77126Z" fill="#FD5B7E"/>
<path d="M19.3273 66.6738H14.3147V60.5828H12.3975V74.4807H14.3147V68.22H19.3273V74.4807H21.2136V60.5828H19.3273V66.6738Z" fill="#FD5B7E"/>
<path d="M23.4912 62.129H26.9475V74.4807H28.8498V62.129H32.3062V60.5828H23.4912V62.129Z" fill="#FD5B7E"/>
<path d="M39.9143 70.0862L36.4718 60.5828H34.5557V74.4807H36.4718V64.9193L39.081 72.6517H40.7465L43.3396 64.9193V74.4807H45.2568V60.5828H43.3396L39.9143 70.0862Z" fill="#FD5B7E"/>
<path d="M50.0781 60.5828H48.1609V74.4807H55.4057V72.7648H50.0781V60.5828Z" fill="#FD5B7E"/>
<path d="M27.8269 23.8517C27.3775 23.3124 26.6511 23.3124 26.2016 23.8517L19.3051 32.1276C18.8557 32.6669 18.8557 33.5386 19.3051 34.0779L26.2016 42.3538C26.4258 42.6228 26.72 42.7579 27.0143 42.7579C27.3085 42.7579 27.6028 42.6228 27.8269 42.3538C28.2764 41.8145 28.2764 40.9428 27.8269 40.4035L21.743 33.1028L27.8269 25.8021C28.2764 25.2628 28.2764 24.3911 27.8269 23.8517Z" fill="#FD5B7E"/>
<path d="M41.6206 23.8517C41.1711 23.3124 40.4447 23.3124 39.9953 23.8517C39.5458 24.3911 39.5458 25.2628 39.9953 25.8021L46.0792 33.1028L39.9953 40.4035C39.5458 40.9428 39.5458 41.8145 39.9953 42.3538C40.2194 42.6228 40.5137 42.7579 40.8079 42.7579C41.1022 42.7579 41.3964 42.6228 41.6206 42.3538L48.5171 34.0779C48.9665 33.5386 48.9665 32.6669 48.5171 32.1276L41.6206 23.8517Z" fill="#FD5B7E"/>
</svg>
