<svg width="80" height="80" viewBox="0 0 80 80" fill="none" xmlns="http://www.w3.org/2000/svg">
<path d="M7.27273 0C3.25455 0 0 3.25455 0 7.27273V72.7273C0 76.7455 3.25455 80 7.27273 80H72.7273C76.7455 80 80 76.7455 80 72.7273V7.27273C80 3.25455 76.7455 0 72.7273 0H7.27273ZM23.3239 22.2798H30.5327L43.2813 58.1534H36.3991L33.3665 48.9773H20.1634L17.081 58.1534H10.5966L23.3239 22.2798ZM26.5767 29.1193L21.6548 43.9063H31.875L27.0028 29.1193H26.5767ZM58.7429 30.4119C66.4993 30.4119 71.1506 35.5553 71.1506 44.1335V46.1222H52.1591V46.4418C52.3082 50.9654 54.9156 53.7997 58.9702 53.7997C62.0247 53.7997 64.141 52.6822 65.0355 50.6676H70.8736C69.7099 55.6167 65.2035 58.7003 58.7926 58.7003C50.789 58.7003 45.9659 53.4011 45.9659 44.652C45.9659 35.9029 50.8665 30.4119 58.7429 30.4119ZM58.7216 35.2983C55.0416 35.2983 52.4568 37.936 52.1804 41.9105H64.9858C64.8585 37.8851 62.4198 35.2983 58.7216 35.2983Z" fill="#FD5B7E"/>
</svg>
