<svg width="80" height="80" viewBox="0 0 80 80" fill="none" xmlns="http://www.w3.org/2000/svg">
<path d="M60.048 24.9568C60.9712 31.7072 60.7408 38.6432 59.5008 45.4C59.3648 46.1392 60.1696 46.6752 60.7872 46.248C61.6912 45.624 62.7136 44.904 63.2288 44.5088C67.2976 41.3824 71.0016 37.744 74.3888 33.792C75.096 32.9664 75.3744 31.832 75.088 30.784C72.4352 21.0416 65.9088 12.896 57.2592 8.11035C56.568 7.72795 55.7808 8.40155 56.0544 9.14395C57.9264 14.224 59.3312 19.504 60.048 24.9568ZM44.92 25.472C44.1808 24.9136 43.2256 24.688 42.312 24.8528C38.0064 25.6304 33.7888 26.8512 29.7472 28.52C28.8896 28.8736 28.2144 29.5792 27.9024 30.4432C26.4304 34.5232 25.3888 38.7504 24.8272 43.0496C24.7088 43.96 24.9872 44.8896 25.5888 45.5888C28.4224 48.8896 31.6 51.8959 35.0816 54.5263C35.8192 55.0847 36.776 55.3104 37.6896 55.1456C41.9952 54.368 46.2128 53.1472 50.2544 51.4784C51.112 51.1248 51.7872 50.4192 52.0992 49.5552C53.5712 45.4752 54.6128 41.248 55.1744 36.9488C55.2928 36.0384 55.0144 35.1088 54.4128 34.4096C51.5792 31.1088 48.4 28.1024 44.92 25.472ZM37.1744 14.5968C43.4816 17.1952 49.3728 20.8976 54.6032 25.392C55.1712 25.88 56.0576 25.4512 55.9968 24.7008C55.496 18.5488 54.0544 12.4656 51.9952 6.55355C51.6352 5.51995 50.7936 4.70715 49.7424 4.42875C46.728 3.62715 43.5648 3.19995 40.3024 3.19995C33.3168 3.19995 26.7872 5.15515 21.2128 8.54555C20.5376 8.95675 20.7312 9.98075 21.5088 10.1152C26.8352 11.0416 32.1008 12.4752 37.1744 14.5968ZM19.952 55.0624C19.0272 48.3088 19.2592 41.368 20.504 34.6096C20.6384 33.8768 19.8288 33.3248 19.216 33.7504C14.1744 37.24 9.66402 41.5104 5.60962 46.2336C4.90242 47.0576 4.62402 48.1888 4.91042 49.2368C7.56162 58.9712 14.088 67.1088 22.7392 71.8912C23.4304 72.2736 24.2176 71.6 23.944 70.8592C22.0736 65.7823 20.6688 60.5088 19.952 55.0624ZM63.5232 50.1488C58.0896 54.3664 51.9088 57.6671 45.376 59.9935C44.6656 60.2463 44.592 61.2352 45.272 61.5584C50.8544 64.2 56.8528 65.984 63.0144 67.1424C64.0912 67.3456 65.2208 67.0159 65.9936 66.2383C72.1504 60.0415 76.1504 51.7008 76.768 42.432C76.8 41.9536 76.8064 40.5408 76.7904 39.2368C76.7808 38.4416 75.7952 38.1008 75.2864 38.712C71.8032 42.8992 67.912 46.7792 63.5232 50.1488ZM42.8256 65.4032C36.5184 62.8064 30.6272 59.1024 25.3968 54.608C24.8288 54.12 23.9424 54.5488 24.0032 55.2992C24.504 61.4512 25.9456 67.5344 28.0048 73.4464C28.3648 74.48 29.2064 75.2927 30.2576 75.5711C33.272 76.3711 36.4352 76.7984 39.6992 76.7984C46.6848 76.7984 53.2144 74.8432 58.7888 71.4528C59.464 71.0416 59.2704 70.0175 58.4928 69.8831C53.1648 68.9583 47.8992 67.5248 42.8256 65.4032ZM16.4656 29.8608C21.9024 25.64 28.088 22.3376 34.6256 20.0112C35.336 19.7584 35.4112 18.768 34.7296 18.4464C29.1424 15.8032 23.1424 14.0192 16.976 12.8592C15.896 12.656 14.7648 12.984 13.992 13.7616C8.02722 19.7648 4.08642 27.7792 3.28002 36.6992C3.21922 37.376 3.19362 39.2016 3.20162 40.7584C3.20482 41.5552 4.19682 41.8976 4.70722 41.2848C8.19042 37.104 12.0784 33.2272 16.4656 29.8608Z" fill="#FD5B7E"/>
</svg>
