<svg width="80" height="80" viewBox="0 0 80 80" fill="none" xmlns="http://www.w3.org/2000/svg">
<path d="M58.2199 37.4633C56.2816 35.9333 53.6766 35.0017 50.8333 35C47.9899 35.0017 45.3832 35.9333 43.4449 37.4633C41.4716 39.0217 40.1632 41.2167 40.0132 43.7083C39.8616 46.2683 40.9632 48.65 42.8999 50.4133C44.8749 52.2067 47.6882 53.3333 50.8349 53.3333C53.9799 53.3333 56.7916 52.2067 58.7633 50.4117C60.6999 48.65 61.8033 46.2683 61.6533 43.7067C61.5033 41.2183 60.1933 39.0217 58.2199 37.4633Z" fill="#FD5B7E"/>
<path d="M76.4517 43.22C76.02 40.1817 74.9667 37.3283 73.35 34.7283C71.865 32.34 69.9583 30.2483 67.6883 28.4867L67.6917 28.4833L67.63 28.4633C67.5833 28.4217 67.5467 28.3733 67.4983 28.3333L43.7483 10.73C42.315 9.58165 40.215 9.80998 39.0633 11.2517C37.9133 12.6883 38.145 14.7867 39.585 15.9367L49.565 23.3333H17.5C15.2083 23.3333 13.3333 25.2083 13.3333 27.5C13.3333 29.7917 15.2083 31.6667 17.5 31.6667H29.4233L4.78833 52.67C3.04167 54.1667 2.83833 56.8 4.33667 58.545C5.16167 59.5067 6.32833 60 7.50167 60C8.46167 60 9.425 59.67 10.2117 58.9967L25.135 46.205C25.0983 47.55 25.07 48.7683 25.0767 49.14C25.0767 55 31.6667 70 51.1367 70C65 70 76.6033 61.6667 76.6033 47.8983C76.7233 46.3417 76.6717 44.7783 76.4517 43.22ZM65.875 48.5883C65.2067 50.4 64.125 52.095 62.65 53.575C59.6333 56.6083 55.4117 58.325 50.8367 58.3317C46.2617 58.34 42.0367 56.6367 39.0183 53.6117C37.5433 52.1367 36.46 50.4433 35.79 48.635C35.1367 46.86 34.8817 44.9767 35.05 43.0767C35.2133 41.2167 35.77 39.445 36.6683 37.8417C37.55 36.265 38.7633 34.8417 40.2583 33.635C43.1917 31.2783 46.9233 30.0033 50.8333 29.9983C54.7433 29.9933 58.4733 31.2583 61.4083 33.605C62.9033 34.805 64.115 36.2233 64.995 37.7967C65.8933 39.3983 66.4517 41.1683 66.6167 43.0267C66.7833 44.93 66.53 46.8117 65.875 48.5883Z" fill="#FD5B7E"/>
</svg>
