<svg width="80" height="80" viewBox="0 0 80 80" fill="none" xmlns="http://www.w3.org/2000/svg">
<path d="M16.8917 13.3267C22.1567 9.27008 29.8734 6.66675 40.0434 6.66675C61.1251 6.66675 71.6667 17.8534 71.6667 29.9751C71.6667 33.5501 70.7784 37.5851 69.2601 41.7201C68.4167 41.6667 30.0001 18.3334 16.8917 13.3267Z" fill="#FD5B7E"/>
<path d="M22.3199 28.7167C22.4533 28.7667 22.5866 28.8334 22.7199 28.9C21.4516 28.3667 20.1499 27.9167 18.7983 27.5667C16.5283 26.9834 14.1416 26.6667 11.6716 26.6667C11.1383 26.6667 10.6199 26.6834 10.1033 26.7C12.6399 23.8 15.6449 21.3333 19.0316 19.4333C19.7499 20.55 20.9349 22.35 22.3533 24.2667C23.0383 25.2 23.7716 26.1667 24.5233 27.1C23.7549 27.6 23.0199 28.15 22.3199 28.7167Z" fill="#FD5B7E"/>
<path d="M11.6733 43.8817C9.64329 39.0001 8.41663 34.1651 8.41663 29.9667C8.41663 28.9167 8.49996 27.8667 8.66663 26.8334C9.65163 26.7167 10.6533 26.6667 11.6716 26.6667C15.4366 26.6667 19.0283 27.3984 22.315 28.7267C18.3333 33.3334 15 38.3334 11.6733 43.8817Z" fill="#FD5B7E"/>
<path d="M26.1417 16.4167C23.705 17.1333 21.4184 18.1167 19.2484 19.3167C19.1817 19.35 19.0984 19.4 19.0317 19.4333C19.015 19.4167 18.9984 19.3833 18.9817 19.3333C18.6984 18.6833 17.58 15.7 17.1284 13.6333C17.095 13.5 17.0784 13.35 17.045 13.2167C19.265 11.5167 21.935 10.0833 25.04 9C25.09 11.5667 25.4734 14.05 26.1417 16.4167Z" fill="#FD5B7E"/>
<path d="M19.0317 19.4332C15.6433 21.3499 12.6233 23.8166 10.1033 26.7166C9.62 26.7332 9.135 26.7832 8.66833 26.8332C9.45333 21.6666 12.24 16.8499 17.0467 13.2166C17.4467 15.3999 18.85 19.1016 19.0317 19.4332Z" fill="#FD5B7E"/>
<path d="M8.46663 28.5333L8.48329 28.5166C8.43329 28.9999 8.41663 29.4833 8.41663 29.9666C8.41663 29.4833 8.43329 29.0166 8.46663 28.5333Z" fill="#FD5B7E"/>
<path d="M40.0434 54.9999C40.0434 61.3166 37.99 67.1332 34.485 71.8332C34.435 71.8165 34.4017 71.7999 34.3684 71.7832C26.04 67.5832 16.5434 55.5999 11.67 43.8832C13.69 37.8332 17.4284 32.5832 22.3184 28.7166C32.7 32.9332 40.0434 43.1166 40.0434 54.9999Z" fill="#F2B7BD"/>
<path d="M30.4966 33.8001C30.4133 33.7334 30.3299 33.6668 30.2633 33.6001C29.0449 32.5501 27.7599 31.6001 26.3749 30.7668C26.0249 30.5501 25.6566 30.3334 25.2733 30.1334C24.8566 29.8834 24.4216 29.6668 23.9716 29.4668C23.5549 29.2668 23.1366 29.0668 22.7199 28.9001C22.5866 28.8334 22.4533 28.7668 22.3199 28.7168C23.0216 28.1501 23.7549 27.6001 24.5233 27.1001C26.0916 29.0501 28.0766 31.3168 30.4966 33.8001Z" fill="#FD5B7E"/>
<path d="M29.98 68.9332C29.88 68.8666 29.7967 68.7999 29.7133 68.7332C29.78 68.7999 29.8467 68.8499 29.9133 68.8999C29.9633 68.9332 30.0133 68.9666 30.0467 68.9999C30.0967 69.0332 30.13 69.0666 30.18 69.0999C30.2467 69.1666 30.33 69.2166 30.3967 69.2666C30.5467 69.3832 30.6967 69.4832 30.83 69.5999C30.93 69.6666 31.0133 69.7332 31.1133 69.7832C30.7317 69.5166 30.3467 69.2332 29.98 68.9332ZM31.2483 69.8832C31.465 70.0499 31.6817 70.1832 31.9 70.3332C32.0167 70.4166 32.1333 70.4832 32.25 70.5499C31.9167 70.3332 31.5817 70.1166 31.2483 69.8832ZM22.32 28.7166L22.3033 28.7332C22.4367 28.7832 22.5867 28.8332 22.72 28.8999C22.5867 28.8332 22.4533 28.7666 22.32 28.7166Z" fill="#FD5B7E"/>
<path d="M22.72 28.9001C22.5867 28.8334 22.4367 28.7834 22.3033 28.7334L22.32 28.7167C22.4533 28.7667 22.5867 28.8334 22.72 28.9001ZM29.7133 68.7334C29.7967 68.8001 29.88 68.8668 29.98 68.9334C29.9633 68.9334 29.93 68.9168 29.9133 68.9001C29.8467 68.8501 29.78 68.8001 29.7133 68.7334ZM29.98 68.9334C30.3467 69.2334 30.7317 69.5167 31.115 69.7834C31.015 69.7334 30.9317 69.6667 30.8317 69.6001C30.6983 69.4834 30.5483 69.3834 30.3983 69.2668C30.3317 69.2168 30.2483 69.1667 30.1817 69.1001C30.1133 69.0501 30.0467 69.0001 29.98 68.9334ZM31.2483 69.8834C31.5817 70.1168 31.9167 70.3334 32.25 70.5501C32.1333 70.4834 32.0167 70.4168 31.9 70.3334C31.6817 70.1834 31.465 70.0501 31.2483 69.8834ZM38.225 65.0001C37.29 67.4668 36.0383 69.7667 34.4867 71.8334C36.4233 72.8001 38.3083 73.3334 40.045 73.3334C40.2617 73.3334 40.495 73.3167 40.73 73.3001C40.8467 73.3001 40.9633 73.2834 41.08 73.2667C41.13 73.2667 41.1633 73.2668 41.2133 73.2501C43.3 72.9668 45.6867 71.9168 48.19 70.3334C48.6233 70.0501 49.075 69.7334 49.5083 69.4168C57.3017 63.6168 65.3633 52.3501 69.2517 41.7168C68.2667 37.2501 66.415 33.1167 63.845 29.5001C63.645 29.3667 63.4617 29.2334 63.2617 29.1001C60.1067 26.5001 56.4683 24.4834 52.48 23.2167C49.3567 22.2001 46.0183 21.6667 42.5467 21.6667C38.0567 21.6667 33.7683 22.5834 29.8783 24.2167C34.0167 30.5001 41.7117 38.5167 41.7117 51.6667C41.7117 58.9834 38.64 64.3001 38.2567 64.9334C38.2417 64.9501 38.225 64.9834 38.225 65.0001Z" fill="#FD5B7E"/>
<path d="M69.2517 41.7168C65.3634 52.3501 57.3017 63.6168 49.5084 69.4168C49.075 69.7334 48.6234 70.0501 48.19 70.3334C45.6867 71.9168 43.3 72.9668 41.2134 73.2501C41.1634 73.2668 41.13 73.2667 41.08 73.2667C40.9634 73.2834 40.8467 73.3001 40.73 73.3001C40.4967 73.3167 40.2634 73.3334 40.045 73.3334C38.31 73.3334 36.4234 72.8001 34.4867 71.8334C36.0384 69.7667 37.29 67.4668 38.225 65.0001C38.225 65.0001 38.2417 64.9834 38.2584 64.9334C38.3084 64.8501 38.4084 64.6834 38.5417 64.4334C38.6584 64.2167 38.7917 63.9501 38.9584 63.6167C39.1417 63.2667 39.325 62.8501 39.5084 62.3834C39.6084 62.1501 39.7084 61.9001 39.825 61.6334C39.925 61.3667 40.025 61.0834 40.125 60.8001C40.4584 59.8667 40.7767 58.8001 41.0434 57.6334C41.11 57.3501 41.16 57.0501 41.2267 56.7334C41.5267 55.2001 41.71 53.5001 41.71 51.6667C41.71 41.4501 37.07 34.3334 33.0317 28.7167C31.8967 27.1001 30.795 25.6167 29.8767 24.2167C33.765 22.5834 38.055 21.6667 42.545 21.6667C46.0167 21.6667 49.355 22.2001 52.475 23.2167C56.4634 24.4834 60.1017 26.5001 63.2567 29.1001C63.4567 29.2334 63.64 29.3667 63.8417 29.5001C65.21 31.4334 66.3784 33.5167 67.3134 35.7167C68.15 37.6334 68.8 39.6334 69.2517 41.7168Z" fill="#FD5B7E"/>
<path d="M67.315 35.7167C63.5767 37.4001 59.42 38.3334 55.065 38.3334C46.3533 38.3334 38.5083 34.6334 33.035 28.7167C31.9 27.1001 30.7983 25.6167 29.88 24.2167C33.7683 22.5834 38.0583 21.6667 42.5483 21.6667C46.02 21.6667 49.3583 22.2001 52.4783 23.2167C56.4667 24.4834 60.105 26.5001 63.26 29.1001C63.46 29.2334 63.6433 29.3667 63.845 29.5001C65.2117 31.4334 66.38 33.5167 67.315 35.7167Z" fill="#F2B7BD"/>
<path d="M15.3 21.8834C13.4 23.3167 11.65 24.9334 10.1 26.7167C9.99996 26.7167 9.88329 26.7167 9.78329 26.7334C9.39996 26.7501 9.03329 26.7834 8.66663 26.8334C8.73329 26.4001 8.81663 25.9501 8.91663 25.5167C8.99996 25.0834 9.11663 24.6501 9.24996 24.2167C9.36663 23.8167 9.49996 23.4334 9.63329 23.0334C9.64996 23.0001 9.64996 22.9834 9.66663 22.9501C9.81663 22.5334 9.99996 22.1167 10.1833 21.7001C10.6833 21.6834 11.1666 21.6667 11.6666 21.6667C12.9 21.6667 14.1166 21.7334 15.3 21.8834Z" fill="#FD5B7E"/>
<path d="M24.5166 27.1C23.75 27.6166 23.0166 28.15 22.3 28.7333C19.15 27.45 15.7333 26.7333 12.1333 26.6833C11.9833 26.6666 11.8166 26.6666 11.6666 26.6666C11.2166 26.6666 10.7833 26.6833 10.3333 26.7C10.25 26.7 10.1833 26.7 10.1 26.7166C11.65 24.9333 13.4 23.3166 15.3 21.8833C15.7166 21.9166 16.1333 21.9666 16.5333 22.0333C17.8666 22.25 19.8166 22.7833 21.75 23.45C22.6 24.6333 23.5333 25.9 24.5166 27.1Z" fill="#FD5B7E"/>
<path d="M63.8433 29.5C63.6433 29.3667 63.46 29.2333 63.2583 29.1C60.1033 26.5 56.465 24.4833 52.4766 23.2167C49.3566 22.2 46.0183 21.6667 42.5466 21.6667C38.0566 21.6667 33.7683 22.5833 29.8783 24.2167C34.0166 30.5 41.7116 38.5167 41.7116 51.6667C41.7116 59.4667 38.2233 65 38.2233 65C39.4083 61.9 40.0433 58.5333 40.0433 55C40.0433 54.4833 40.0266 53.95 39.9933 53.45C39.9766 52.9333 39.9266 52.4167 39.8766 51.9C39.7766 51.0333 39.6433 50.1833 39.4766 49.35C39.4266 49.0667 39.3599 48.8 39.2933 48.5167C39.2099 48.1667 39.1266 47.8 39.0266 47.45C38.91 47.0167 38.7766 46.6 38.6433 46.1667C38.3433 45.2667 37.9933 44.3833 37.6083 43.5167C37.525 43.3167 37.425 43.1 37.325 42.9C35.7066 39.4833 33.4199 36.4333 30.6316 33.9333C30.5816 33.8833 30.5483 33.8333 30.4983 33.8C28.0783 31.3167 26.0916 29.05 24.5233 27.1C22.2199 24.2667 20.0999 21.0833 19.0316 19.4333C24.0049 16.6167 29.7466 15 35.8716 15C47.4366 15 57.6516 20.7333 63.8433 29.5Z" fill="#FD5B7E"/>
<path d="M38.5416 64.4334C38.6583 64.2167 38.7916 63.95 38.9583 63.6167C38.8083 63.95 38.6583 64.2167 38.5416 64.4334Z" fill="#FD5B7E"/>
</svg>
