<svg width="80" height="80" viewBox="0 0 80 80" fill="none" xmlns="http://www.w3.org/2000/svg">
<path d="M40.0783 8.33337C37.4867 8.34171 35.69 8.57004 33.5183 8.94504C27.105 10.0617 25.9367 12.4067 25.9367 16.7284V23.3334H40.9367V26.6667H25.3667H18.1167C13.7233 26.6667 9.87833 28.7367 8.66 33.6984C7.28333 39.3934 7.22167 42.96 8.66 48.9067C9.75167 53.3417 12.1567 56.6667 16.5517 56.6667H22.605V48.16C22.605 43.2167 27.0817 38.3334 32.2117 38.3334H44.2717C48.4767 38.3334 52.605 35.23 52.605 31.0384V16.7284C52.605 12.6634 49.6733 9.62337 45.575 8.94171C45.6767 8.93171 42.6483 8.32337 40.0783 8.33337ZM31.7717 15C33.14 15 34.2717 16.1284 34.2717 17.5034C34.2717 18.8917 33.14 20 31.7717 20C30.3767 20 29.2717 18.8934 29.2717 17.5034C29.2717 16.1334 30.3767 15 31.7717 15Z" fill="#FD5B7E"/>
<path d="M38.4634 71.6666C41.0551 71.6583 42.8518 71.4299 45.0234 71.0549C51.4368 69.9382 52.6051 67.5933 52.6051 63.2716V56.6666H37.6051V53.3333H53.1768H60.4268C64.8201 53.3333 68.6651 51.2633 69.8834 46.3016C71.2601 40.6066 71.3218 37.0399 69.8834 31.0933C68.7901 26.6583 66.3851 23.3333 61.9901 23.3333H55.9368V31.8399C55.9368 36.7833 51.4601 41.6666 46.3301 41.6666H34.2701C30.0651 41.6666 25.9368 44.7699 25.9368 48.9616V63.2716C25.9368 67.3366 28.8684 70.3766 32.9668 71.0582C32.8651 71.0682 35.8934 71.6766 38.4634 71.6666ZM46.7718 64.9999C45.4034 64.9999 44.2718 63.8716 44.2718 62.4966C44.2718 61.1083 45.4034 59.9999 46.7718 59.9999C48.1668 59.9999 49.2718 61.1066 49.2718 62.4966C49.2718 63.8666 48.1651 64.9999 46.7718 64.9999Z" fill="#FD5B7E"/>
</svg>
