<svg width="80" height="80" viewBox="0 0 80 80" fill="none" xmlns="http://www.w3.org/2000/svg">
<path fill-rule="evenodd" clip-rule="evenodd" d="M32.738 26.9968C32.1152 29.5048 28.3262 43.9718 28.3262 43.9718H37.6009C37.6009 43.9718 33.4759 29.5048 32.8596 26.9968H32.738Z" fill="#FD5B7E"/>
<path fill-rule="evenodd" clip-rule="evenodd" d="M0 0V80H80V0H0ZM42.2018 61.82L38.9618 51.0745H26.972L23.9699 61.82H14.1459L26.9721 19.9189H39.389L52.3798 61.82H42.2018ZM65.5427 61.82H56.0791V31.433H65.5427V61.82ZM60.7531 27.6928C57.7755 27.6928 55.7742 25.5692 55.8412 22.9702C55.7742 20.2303 57.7757 18.18 60.8264 18.18C63.8773 18.18 65.7811 20.2302 65.8541 22.9702C65.8541 25.5692 63.8773 27.6928 60.7531 27.6928Z" fill="#FD5B7E"/>
</svg>
