<svg width="67" height="80" viewBox="0 0 67 80" fill="none" xmlns="http://www.w3.org/2000/svg">
<path d="M58.5632 16.8097L56.9988 14.9324L46.0747 1.82207C46.0736 1.82069 46.0736 1.82069 46.0736 1.82069L45.1873 0.757241C44.7793 0.268966 44.2379 0 43.6621 0H10.3034C8.93908 0 7.47241 1.26345 7.47241 4.03586V53.7931V76.6028V77.2414C7.47241 78.3959 8.43908 79.52 9.58276 79.8745C9.64138 79.8938 9.6977 79.92 9.75747 79.9338C9.93678 79.9766 10.1195 80 10.3034 80H56.3655C56.5494 80 56.7322 79.9766 56.9115 79.9338C56.9713 79.92 57.0276 79.8938 57.0862 79.8745C58.2299 79.52 59.1965 78.3959 59.1965 77.2414V76.6028V53.7931V19.28C59.1965 18.2221 59.0896 17.44 58.5632 16.8097ZM45.4034 4.91724L55.0988 16.5517H45.4034V4.91724ZM10.3034 77.2414C10.2218 77.2414 10.1483 77.2069 10.0759 77.1738C9.8977 77.0717 9.77126 76.8566 9.77126 76.6028V56.5517H56.8977V76.6028C56.8977 76.8566 56.7713 77.0717 56.5931 77.1738C56.5207 77.2069 56.4471 77.2414 56.3655 77.2414H10.3034ZM9.77126 53.7931V4.03586C9.77126 3.73655 9.80919 2.75862 10.3034 2.75862H43.1713C43.1333 2.93241 43.1046 3.11172 43.1046 3.29793V19.0069C42.4931 18.3448 41.6919 17.931 40.8057 17.931C40.1701 17.931 39.6563 18.549 39.6563 19.3103C39.6563 20.0717 40.1701 20.6897 40.8057 20.6897C41.4402 20.6897 41.9552 21.309 41.9552 22.069V27.5862C41.9552 29.2414 42.5782 30.7117 43.5437 31.7241C42.5782 32.7366 41.9552 34.2069 41.9552 35.8621V41.3793C41.9552 42.1393 41.4402 42.7586 40.8057 42.7586C40.1701 42.7586 39.6563 43.3766 39.6563 44.1379C39.6563 44.8993 40.1701 45.5172 40.8057 45.5172C42.7069 45.5172 44.254 43.6607 44.254 41.3793V35.8621C44.254 34.3407 45.285 33.1034 46.5529 33.1034C47.1885 33.1034 47.7023 32.4855 47.7023 31.7241C47.7023 30.9628 47.1885 30.3448 46.5529 30.3448C45.285 30.3448 44.254 29.1076 44.254 27.5862V22.069C44.254 21.0055 43.908 20.0441 43.3575 19.3103H56.4483C56.6034 19.3103 56.7529 19.2759 56.8977 19.2303C56.8977 19.251 56.8988 19.2593 56.8988 19.28V53.7931H9.77126Z" fill="#FD5B7E"/>
<path d="M29.1464 70.9372C29.1246 71.5524 28.9499 71.991 28.62 72.2476C28.2901 72.5041 27.8464 72.6338 27.2924 72.6338C27.0729 72.6338 26.8372 72.6034 26.5855 72.54C26.3338 72.4765 26.0924 72.4048 25.8625 72.3234C25.6315 72.2407 25.42 72.1538 25.2257 72.06C25.0315 71.9662 24.8821 71.8738 24.7775 71.7869L23.9763 73.3138C24.1855 73.5027 24.4418 73.6724 24.7464 73.8227C25.0499 73.9731 25.3671 74.1083 25.697 74.2283C26.0269 74.3483 26.3464 74.4352 26.6556 74.4917C26.9648 74.5483 27.2338 74.5772 27.4648 74.5772C27.9246 74.5772 28.374 74.5234 28.8085 74.4172C29.243 74.311 29.628 74.122 29.9637 73.8517C30.2981 73.5814 30.5648 73.2227 30.7648 72.7772C30.9637 72.3317 31.0637 71.78 31.0637 71.1276V60.3027H29.1464V70.9372Z" fill="#FD5B7E"/>
<path d="M39.1767 67.6754C38.8158 67.3609 38.425 67.0933 38.0055 66.874C37.5859 66.6547 37.1986 66.4285 36.8423 66.1954C36.4848 65.9623 36.1871 65.6933 35.9469 65.3844C35.7055 65.0754 35.5859 64.6699 35.5859 64.1678C35.5859 63.9664 35.6273 63.7554 35.7112 63.5361C35.794 63.3168 35.9101 63.1182 36.0572 62.9416C36.2032 62.7651 36.371 62.6188 36.5606 62.4988C36.7503 62.3788 36.948 62.3071 37.1584 62.2823C37.5354 62.2451 37.8446 62.2382 38.0859 62.263C38.3262 62.2892 38.5204 62.3319 38.6675 62.3954C38.8135 62.4588 38.9273 62.5209 39.0055 62.5844C39.0836 62.6478 39.1549 62.6975 39.2181 62.7347C39.2285 62.7223 39.2595 62.6588 39.3124 62.5457C39.3641 62.4326 39.4273 62.2906 39.5009 62.1209C39.5733 61.9513 39.6526 61.7692 39.7365 61.5747C39.8193 61.3788 39.894 61.2009 39.9561 61.0368C39.6515 60.7982 39.2538 60.6244 38.7618 60.5182C38.2687 60.4119 37.7813 60.3582 37.3009 60.3582C36.8296 60.3582 36.3813 60.4451 35.9572 60.6216C35.5331 60.7982 35.1618 61.0533 34.8411 61.3857C34.5204 61.7182 34.2675 62.1237 34.079 62.6023C33.8905 63.0809 33.794 63.6285 33.794 64.2437C33.794 64.9223 33.9135 65.4878 34.1549 65.9402C34.3951 66.3926 34.6997 66.7857 35.0664 67.1182C35.4319 67.4506 35.825 67.7402 36.2446 67.9857C36.6629 68.2313 37.0538 68.4754 37.4158 68.7209C37.7779 68.9664 38.0779 69.2395 38.3193 69.5416C38.5595 69.8437 38.6802 70.2078 38.6802 70.6354C38.6802 71.3402 38.5101 71.8713 38.1698 72.2285C37.8296 72.5857 37.3388 72.7664 36.7009 72.7664C36.4905 72.7664 36.2652 72.7402 36.025 72.6906C35.7836 72.6409 35.5423 72.5747 35.302 72.492C35.0606 72.4092 34.8285 72.3223 34.6032 72.2285C34.3779 72.1347 34.1917 72.0368 34.0457 71.9361L33.7158 73.5582C33.8928 73.7471 34.1066 73.9071 34.3526 74.0395C34.5986 74.172 34.8572 74.2754 35.1308 74.3513C35.402 74.4271 35.6733 74.4809 35.94 74.5113C36.2066 74.5416 36.4664 74.5582 36.7181 74.5582C37.3043 74.5582 37.8285 74.452 38.2894 74.2382C38.7492 74.0244 39.1377 73.7389 39.4526 73.3802C39.7676 73.0216 40.0101 72.6064 40.1836 72.1361C40.3572 71.6657 40.4434 71.1775 40.4434 70.674C40.4434 69.932 40.3227 69.3251 40.0825 68.8547C39.8388 68.383 39.5377 67.9899 39.1767 67.6754Z" fill="#FD5B7E"/>
<path d="M23.5645 27.5883V22.071C23.5645 21.311 24.0795 20.6917 24.7139 20.6917C25.3496 20.6917 25.8634 20.0738 25.8634 19.3124C25.8634 18.551 25.3496 17.9331 24.7139 17.9331C22.8128 17.9331 21.2657 19.7897 21.2657 22.071V27.5883C21.2657 29.1097 20.2346 30.3469 18.9668 30.3469C18.3312 30.3469 17.8174 30.9648 17.8174 31.7262C17.8174 32.4876 18.3312 33.1055 18.9668 33.1055C20.2346 33.1055 21.2657 34.3428 21.2657 35.8641V41.3814C21.2657 43.6628 22.8128 45.5193 24.7139 45.5193C25.3496 45.5193 25.8634 44.9014 25.8634 44.14C25.8634 43.3786 25.3496 42.7607 24.7139 42.7607C24.0795 42.7607 23.5645 42.1414 23.5645 41.3814V35.8641C23.5645 34.209 22.9415 32.7386 21.976 31.7262C22.9415 30.7138 23.5645 29.2435 23.5645 27.5883Z" fill="#FD5B7E"/>
<path d="M32.7595 28.9656C33.7118 28.9656 34.4837 28.0393 34.4837 26.8966C34.4837 25.7539 33.7118 24.8276 32.7595 24.8276C31.8073 24.8276 31.0354 25.7539 31.0354 26.8966C31.0354 28.0393 31.8073 28.9656 32.7595 28.9656Z" fill="#FD5B7E"/>
<path d="M32.7608 34.4792C32.1251 34.4792 31.6113 35.0972 31.6113 35.8586V39.9965C31.6113 40.7579 32.1251 41.3758 32.7608 41.3758C33.3964 41.3758 33.9102 40.7579 33.9102 39.9965V35.8586C33.9102 35.0972 33.3964 34.4792 32.7608 34.4792Z" fill="#FD5B7E"/>
</svg>
