<svg width="80" height="80" viewBox="0 0 80 80" fill="none" xmlns="http://www.w3.org/2000/svg">
<path d="M79.3638 32.6774C79.0769 31.3891 78.0477 30.4337 76.7416 30.2428C75.4393 30.0534 74.1828 30.6719 73.5414 31.8209C70.6433 37.0108 65.8903 40.8996 60.2826 42.743C60.6983 39.7041 60.8618 37.127 60.7685 35.0586C60.7177 33.9258 60.0582 32.9032 59.0474 32.3901C58.0221 31.8694 56.8379 31.9387 55.8795 32.5752L48.6522 37.3754L46.1699 35.9181C42.6233 33.8359 40.4471 30.1383 40.3485 26.0268C40.2751 22.9637 39.3711 19.9547 37.768 17.3548L38.7744 17.0393C40.7118 16.4319 42.261 15.0044 43.0249 13.1232L44.7533 8.86613C45.517 6.98497 45.3896 4.88791 44.4358 3.09541C43.0967 0.579001 39.5917 -0.716365 36.6512 1.25912C35.1528 2.26584 33.5775 3.18343 31.9374 3.94009L28.9675 5.3101C27.5241 5.97605 26.382 7.06371 25.6535 8.38537L15.048 3.03557C11.079 1.03095 6.14142 0.308464 1.11018 1.86397C0.786102 1.96428 0 2.39765 0 3.36783V30.957C0 31.8262 0.70705 32.5317 1.57472 32.5317C2.44239 32.5317 3.14945 31.8262 3.14945 30.957V4.57407C6.21763 3.8097 10.1798 4.09929 13.6292 5.84802L24.7257 11.4444L25.3441 23.4585C25.3831 24.2156 25.9557 24.8373 26.7068 24.9382C27.4583 25.0399 28.1746 24.5907 28.4121 23.871C29.2376 21.3688 31.2315 19.4045 33.7455 18.6162L34.6448 18.3342C36.2329 20.6066 37.1334 23.3274 37.2 26.1026C37.3249 31.3114 40.0822 35.9962 44.5754 38.6344L47.878 40.5732C47.8961 40.5843 47.9144 40.5952 47.9328 40.6054L56.6303 45.7115L56.1529 48.5805C55.5149 52.4138 57.338 56.3116 60.6893 58.2793C60.6893 58.2793 62.25 59.2102 62.3063 59.2437C63.6204 60.0278 64.1802 61.6349 63.6375 63.0656L60.934 70.1929C60.3164 71.8179 59.2924 73.2378 58.0036 74.3169C58.1991 71.9265 56.8721 69.5641 54.5563 68.5637C53.7582 68.219 52.8312 68.5865 52.4861 69.3848C52.1413 70.1831 52.509 71.1099 53.3072 71.4549C54.615 72.0199 55.225 73.546 54.667 74.8569L54.0566 76.2909C52.7444 76.5943 51.3884 76.6201 50.0952 76.3628C39.7646 74.3069 30.8342 67.8551 25.5938 58.6614C24.2616 56.324 21.5836 55.1017 18.9286 55.6193L11.4717 57.0737L9.44519 25.1258C9.39165 24.299 8.71688 23.6133 7.77441 23.655C6.83193 23.6969 6.24047 24.5428 6.30204 25.3256L8.44209 59.0625C8.54917 60.9721 7.57394 62.7246 5.71467 63.6465L3.14945 64.8355V45.1295C3.14945 44.2616 2.44239 43.5547 1.57472 43.5547C0.70705 43.5547 0 44.2616 0 45.1295V67.3016C0 68.447 1.14797 69.209 2.23768 68.7297L7.03901 66.5046C9.34818 65.4095 11.2097 63.1733 11.5433 60.2682L19.5314 58.7102C20.8577 58.451 22.1949 59.0584 22.8576 60.2207C28.5504 70.2079 38.256 77.207 49.4803 79.4513C56.2176 80.7983 61.917 76.5315 63.8785 71.3105L66.5823 64.1823C67.0482 62.9536 67.1077 61.6595 66.8156 60.4589C68.1545 60.343 69.4596 59.8218 70.5345 58.9125C74.2549 55.7659 77.0452 51.6477 78.6034 47.0035C80.1572 42.3729 80.42 37.4188 79.3638 32.6774ZM32.8034 15.611C31.063 16.1566 29.5031 17.1093 28.2352 18.3587L27.9131 12.0983C27.8266 10.4171 28.7584 8.87511 30.287 8.16995L33.2569 6.79994C35.0585 5.9688 36.7942 4.96838 38.4349 3.85505C39.7443 2.96659 41.1988 3.69223 41.6654 4.59328C42.1723 5.57245 42.244 6.67459 41.8353 7.68131L40.1066 11.9386C39.698 12.9453 38.8689 13.709 37.8321 14.0342L32.8034 15.611ZM57.1546 42.3671L51.6742 39.1496L57.6224 35.2002C57.6837 36.5608 57.6372 38.844 57.1546 42.3671ZM68.5007 56.5079C68.5007 56.5081 68.5007 56.5081 68.5007 56.5079C67.3717 57.463 65.762 57.6052 64.495 56.8611L62.2841 55.5633C60.0498 54.2514 58.8345 51.6529 59.2596 49.0973L59.7442 46.1859C66.7555 44.3327 72.7451 39.7045 76.2892 33.3598C76.2893 33.3606 76.2895 33.3614 76.2896 33.3622C78.2042 41.9562 75.2196 50.8252 68.5007 56.5079ZM40.9092 51.7453C42.7512 53.5873 45.7484 53.5873 47.5902 51.7453C48.2051 51.1306 49.2022 51.1306 49.8173 51.7453C50.4322 52.3603 50.4322 53.3574 49.8173 53.9725C46.7288 57.061 41.7377 57.0279 38.6823 53.9725C38.0673 53.3575 38.0673 52.3604 38.6823 51.7453C39.2972 51.1306 40.2943 51.1306 40.9092 51.7453ZM43.4623 49.9796C42.5926 49.9796 41.8876 49.2745 41.8876 48.4049C41.8876 47.5353 42.5926 46.8302 43.4623 46.8302H45.0371C45.9068 46.8302 46.6118 47.5353 46.6118 48.4049C46.6118 49.2745 45.9068 49.9796 45.0371 49.9796H43.4623ZM0 38.0432C0 37.1754 0.70705 36.4685 1.57472 36.4685C2.44239 36.4685 3.14945 37.1754 3.14945 38.0432C3.14945 38.9109 2.44239 39.6179 1.57472 39.6179C0.70705 39.6179 0 38.9109 0 38.0432Z" fill="#FD5B7E"/>
</svg>
